<?xml version="1.0" encoding="UTF-8" standalone="no"?>
<!-- Created with Inkscape (http://www.inkscape.org/) -->

<svg
   width="102.91503mm"
   height="70.000008mm"
   viewBox="0 0 102.91503 70.000008"
   version="1.1"
   id="svg1"
   xml:space="preserve"
   sodipodi:docname="logo clear bckgrnd.svg"
   inkscape:version="1.4.2 (f4327f4, 2025-05-13)"
   xmlns:inkscape="http://www.inkscape.org/namespaces/inkscape"
   xmlns:sodipodi="http://sodipodi.sourceforge.net/DTD/sodipodi-0.dtd"
   xmlns="http://www.w3.org/2000/svg"
   xmlns:svg="http://www.w3.org/2000/svg"><sodipodi:namedview
     id="namedview1"
     pagecolor="#ffffff"
     bordercolor="#eeeeee"
     borderopacity="1"
     inkscape:showpageshadow="0"
     inkscape:pageopacity="0"
     inkscape:pagecheckerboard="0"
     inkscape:deskcolor="#505050"
     inkscape:document-units="mm"
     showgrid="false"
     inkscape:zoom="2.1568649"
     inkscape:cx="219.29978"
     inkscape:cy="129.58623"
     inkscape:window-width="1920"
     inkscape:window-height="1009"
     inkscape:window-x="1912"
     inkscape:window-y="-8"
     inkscape:window-maximized="1"
     inkscape:current-layer="g6"><inkscape:grid
       id="grid1"
       units="mm"
       originx="0"
       originy="0"
       spacingx="1"
       spacingy="1"
       empcolor="#0099e5"
       empopacity="0.30196078"
       color="#0099e5"
       opacity="0.14901961"
       empspacing="5"
       enabled="true"
       visible="false" /></sodipodi:namedview><defs
     id="defs1"><clipPath
       clipPathUnits="userSpaceOnUse"
       id="clipPath3"><text
         xml:space="preserve"
         style="font-style:normal;font-variant:normal;font-weight:normal;font-stretch:normal;font-size:66.492px;font-family:'Agency FB';-inkscape-font-specification:'Agency FB';text-align:start;text-anchor:start;fill:#3b4a5a;fill-opacity:1;stroke-width:4.92148"
         x="-48.430267"
         y="232.11469"
         id="text4"
         transform="scale(1.1893515,0.84079433)"><tspan
           id="tspan4"
           x="-48.430267"
           y="232.11469"
           style="stroke-width:4.92148">connect</tspan></text></clipPath></defs><g
     id="layer1"
     transform="matrix(0.63899872,0,0,0.63899872,-435.56421,-85.94186)"><g
       id="g5"
       transform="matrix(0.26458333,0,0,0.26458333,30.731728,229.76817)"><g
         id="g22-1"
         transform="matrix(3.4383342,0,0,3.4383342,3069.7569,106.80059)"><g
           id="g21-4"
           transform="translate(10.334299)" /><g
           id="g1-2"><g
             id="g4"
             transform="matrix(0.5918444,0,0,0.5918444,-107.72475,-172.65987)"><g
               id="g6"
               transform="matrix(1.4611808,0,0,1.4611808,-27.921934,-26.91946)"
               inkscape:export-filename="g6.svg"
               inkscape:export-xdpi="96"
               inkscape:export-ydpi="96"><g
                 id="g7"><g
                   id="g2"><path
                     style="fill:#3b4a5a;fill-opacity:1;stroke-width:0.373407"
                     d="m -57.127754,157.01834 c -4.262811,-1.0417 -8.009896,-4.7584 -9.095751,-9.022 -0.470493,-1.8474 -0.476817,-48.164095 -0.0068,-49.932545 0.513936,-1.93375 1.694575,-4.05856 2.997785,-5.39515 0.860989,-0.88303 5.987047,-4.5085 17.793299,-12.58454 9.121145,-6.23929 17.634525,-11.99151 18.918625,-12.78271 l 2.33473,-1.43853 1.57655,0.11088 c 0.91124,0.0641 2.99587,0.50831 4.93986,1.05265 1.84982,0.51797 19.52424,6.10637 39.27649,12.41867 33.29257,10.63942 35.98202,11.53332 36.856704,12.25004 1.71773,1.40755 3.44255,4.23207 4.01748,6.5789 0.1621,0.66171 0.23861,9.062185 0.25462,27.957525 0.0126,14.85641 0.0175,27.93391 0.0109,29.06111 l -0.012,2.0495 h -3.99393 -3.993934 l -10e-4,-28.32537 c -8.1e-4,-19.57526 -0.0711,-28.57711 -0.22743,-29.140265 -0.12445,-0.44819 -0.57324,-1.1685 -0.99732,-1.60069 -0.75563,-0.7701 -1.48539,-1.01332 -36.50622,-12.16718 -19.97564,-6.36208 -36.41144,-11.48756 -37.26863,-11.62216 -1.07247,-0.16841 -1.74467,-0.17597 -2.23607,-0.0251 -0.93454,0.28682 -33.850174,22.77241 -34.838767,23.79934 -0.424077,0.44052 -0.872867,1.16765 -0.997311,1.61584 -0.320507,1.154305 -0.316011,45.262285 0.0047,46.429785 0.34205,1.245 1.759991,2.5244 3.121653,2.8164 1.510562,0.324 42.016955,0.3244 43.527375,5e-4 1.28692,-0.276 2.41732,-1.1889 2.96505,-2.3946 0.35897,-0.7902 0.38308,-1.8015 0.38741,-16.24712 0.004,-13.43548 -0.037,-15.50393 -0.32072,-16.18306 -0.41409,-0.99104 -1.04504,-1.66551 -2.03111,-2.1712 -0.73239,-0.37559 -1.35397,-0.39996 -10.20305,-0.39996 -9.35494,0 -9.42991,0.003 -10.35825,0.47297 -0.54656,0.27644 -1.19831,0.85163 -1.56854,1.38428 l -0.63344,0.91131 -0.0587,13.12 -0.0587,13.12008 h -3.96597 -3.96598 l -0.147756,-2.99553 c -0.08127,-1.6475 -0.109116,-7.67781 -0.06188,-13.40069 l 0.08588,-10.40524 0.560836,-1.68166 c 1.38539,-4.15407 4.67824,-7.23023 8.89361,-8.30834 1.50055,-0.38377 2.35148,-0.41525 11.22588,-0.41525 10.66187,0 11.3002,0.0663 14.05991,1.45936 2.69866,1.36228 5.20211,4.39045 6.17924997,7.47444 0.46504,1.4677 0.46623,1.51344 0.46623,17.97269 0,15.42472 -0.0252,16.58352 -0.38672,17.76242 -1.24018997,4.0448 -4.29374997,7.2706 -8.11149997,8.569 l -1.38151,0.4699 -22.91255,0.037 c -18.987045,0.031 -23.118252,-0.013 -24.113177,-0.256 z"
                     id="path14-3"
                     transform="translate(10.334298)" /><path
                     style="fill:#f4a300;fill-opacity:1;stroke-width:0.373407"
                     d="m 15.483324,156.86774 c -1.11272,-0.3565 -2.48384,-1.7078 -2.86347,-2.8219 -0.49526,-1.4535 -0.50415,-23.4588 -0.0101,-24.90884 0.39878,-1.17038 1.36576,-2.19727 2.61812,-2.78036 0.91078,-0.42405 1.30726,-0.44267 10.668,-0.50092 l 9.72207,-0.0605 v -8.19012 -8.19012 h -7.98786 -7.98786 v 4.62455 4.62455 h -3.48912 -3.48911 l 0.0968,-5.41283 c 0.1079,-6.03389 0.1929,-6.49584 1.46012,-7.93547 1.50147,-1.70577 1.30637,-1.68149 13.51428,-1.68149 h 10.72056 l 1.18164,0.5803 c 1.17452,0.57679 1.94542,1.42219 2.53778,2.78301 0.21961,0.50451 0.28602,5.55943 0.33209,25.27738 l 0.0576,24.64676 h -3.57855 -3.57854 v -0.7357 c 0,-0.4047 -0.071,-0.7357 -0.15766,-0.7357 -0.0867,0 -1.95492,0.2397 -4.15159,0.5328 -8.57266,1.1437 -13.87019,1.4438 -15.6152,0.8846 z m 16.50858,-6.3848 3.62607,-0.1228 v -9.5418 -9.54184 h -8.30317 -8.30317 v 9.75484 9.7549 l 4.6771,-0.09 c 2.57241,-0.05 6.30884,-0.1455 8.30317,-0.213 z"
                     id="path15-22"
                     transform="translate(10.334298)" /><path
                     style="fill:#f4a300;fill-opacity:1;stroke-width:0.373407"
                     d="M 75.136878,114.98546 V 71.998145 h 3.57352 3.57352 v 42.987315 42.98728 h -3.57352 -3.57352 z"
                     id="path16-1"
                     transform="translate(10.334298)" /><path
                     style="fill:#f4a300;fill-opacity:1;stroke-width:0.373407"
                     d="m 98.262538,157.56094 c -1.49933,-0.5175 -2.59711,-1.6747 -3.04268,-3.2074 -0.29365,-1.0101 -0.32467,-3.6645 -0.27472,-23.51159 l 0.0563,-22.3729 0.63063,-1.14087 c 0.78479,-1.4198 1.95515,-2.2039 3.75821,-2.51789 1.797562,-0.31303 18.871412,-0.30995 20.672692,0.004 1.7924,0.31213 3.1268,1.21656 3.83312,2.59801 l 0.53432,1.04505 0.0599,10.81812 0.0599,10.81813 -1.20945,1.2222 -1.20945,1.22221 h -10.14909 -10.14906 v 9.77463 9.7746 h 7.88276 7.88276 v -4.9398 -4.9399 h 3.48284 3.48285 l -0.067,6.0435 c -0.0637,5.7489 -0.0894,6.0854 -0.52756,6.9041 -0.25332,0.4734 -0.7959,1.1552 -1.20573,1.515 -1.43829,1.2629 -1.85193,1.3037 -13.13888,1.2961 -9.46167,-0.01 -10.293902,-0.036 -11.362672,-0.405 z m 19.336142,-38.79176 v -8.09296 h -7.88276 -7.88276 v 8.09296 8.09297 h 7.88276 7.88276 z"
                     id="path17-6"
                     transform="translate(10.334298)" /><path
                     style="fill:#3b4a5a;fill-opacity:1;stroke-width:0.373407"
                     d="m 102.91923,99.570225 c 0.0385,-0.0964 1.91048,-2.98147 4.15987,-6.41131 l 4.0898,-6.23608 h 5.1147 5.11471 l -1.95237,1.85866 c -1.0738,1.02227 -4.12801,3.90694 -6.78713,6.41038 l -4.83475,4.55172 -2.48745,9.3e-4 c -1.3681,5.1e-4 -2.45592,-0.0779 -2.41738,-0.1743 z"
                     id="path18-85"
                     transform="translate(10.334298)" /></g><path
                   style="fill:#3b4a5a;stroke:#3b4a5a;stroke-width:0.464366;fill-opacity:1;stroke-opacity:1"
                   d="m 21.559069,254.46515 c -2.595812,-0.47598 -4.207084,-1.21737 -5.092745,-2.34331 -0.906271,-1.15214 -0.934521,-1.83476 -0.934521,-22.58143 0,-19.028 0.08359,-21.51273 0.756047,-22.47279 1.550169,-2.21318 2.788911,-2.37237 18.460569,-2.37237 20.042893,0 19.728799,-0.15464 19.728799,9.71333 v 5.58665 H 49.840859 45.2045 v -4.86817 -4.86818 H 35.00451 24.804521 v 19.24089 19.24089 H 35.00451 45.2045 v -5.56363 -5.56363 h 4.636359 4.636359 l -0.0068,6.37499 c -0.0078,7.30383 -0.30929,8.26719 -3.010458,9.62045 -1.712215,0.8578 -2.858217,0.93257 -15.296325,0.99806 -7.394992,0.0389 -13.967031,-0.0249 -14.604531,-0.14175 z"
                   id="path1"
                   transform="matrix(0.52630856,0,0,0.52630856,-61.354622,61.058027)" /><path
                   style="fill:#3b4a5a;stroke:#3b4a5a;stroke-width:0.464366;fill-opacity:1;stroke-opacity:1"
                   d="m 76.223865,254.29844 c -2.725625,-0.46107 -3.956509,-1.2453 -4.824072,-3.07355 -0.585497,-1.23385 -0.694239,-4.67625 -0.688483,-21.79519 0.0073,-21.85657 -0.0094,-21.69611 2.461252,-23.53067 1.271942,-0.94445 1.779566,-0.97196 17.931892,-0.97196 16.152326,0 16.659956,0.0275 17.931896,0.97196 2.50816,1.86238 2.47841,1.55674 2.35277,24.17172 l -0.1165,20.97095 -1.40806,1.40771 c -1.07058,1.07032 -2.07067,1.51621 -4.17272,1.86043 -3.2215,0.52752 -26.334999,0.51859 -29.467975,-0.0114 z M 102.23172,229.49977 V 210.25888 H 91.104454 79.977193 v 19.24089 19.24089 h 11.127261 11.127266 z"
                   id="path2"
                   transform="matrix(0.52630856,0,0,0.52630856,-61.354622,61.058027)" /><path
                   style="fill:#3b4a5a;stroke:#3b4a5a;stroke-width:0.464366;fill-opacity:1;stroke-opacity:1"
                   d="m 127.73169,229.73159 v -25.03634 h 4.63636 c 3.87254,0 4.63636,0.11803 4.63636,0.71646 0,0.54782 0.35467,0.6607 1.50682,0.47956 4.23717,-0.66617 13.80567,-1.35216 19.35679,-1.38773 6.76795,-0.0434 8.58891,0.44352 9.83852,2.6306 0.45508,0.79648 0.62497,6.46577 0.72928,24.33608 l 0.13599,23.29771 h -4.88826 -4.88825 v -22.3275 -22.3275 l -7.99772,0.30337 c -4.39875,0.16686 -9.3017,0.30402 -10.89545,0.3048 l -2.89772,0.001 v 22.0227 22.02271 h -4.63636 -4.63636 z"
                   id="path3"
                   transform="matrix(0.52630856,0,0,0.52630856,-61.354622,61.058027)" /><path
                   style="fill:#3b4a5a;stroke:#3b4a5a;stroke-width:0.464366;fill-opacity:1;stroke-opacity:1"
                   d="m 184.75891,229.73159 v -25.03634 h 4.63636 c 3.87254,0 4.63635,0.11803 4.63635,0.71646 0,0.5519 0.3461,0.65748 1.50682,0.45968 0.82875,-0.14124 5.15795,-0.56677 9.62045,-0.94564 13.61432,-1.15587 16.59046,-0.89026 18.74745,1.67318 l 1.18889,1.41292 v 23.37804 23.37804 h -4.63636 -4.63636 v -22.3275 -22.3275 l -7.99772,0.30337 c -4.39874,0.16686 -9.30169,0.30402 -10.89544,0.3048 l -2.89773,0.001 v 22.0227 22.02271 h -4.63635 -4.63636 z"
                   id="path4"
                   transform="matrix(0.52630856,0,0,0.52630856,-61.354622,61.058027)" /><path
                   style="fill:#3b4a5a;stroke:#3b4a5a;stroke-width:0.464366;fill-opacity:1;stroke-opacity:1"
                   d="m 246.82662,254.31431 c -2.84352,-0.5044 -3.96032,-1.15129 -4.80388,-2.78255 -0.59409,-1.14884 -0.70025,-4.51131 -0.70025,-22.17826 0,-20.65967 0.008,-20.8342 1.00511,-22.10191 1.91495,-2.43446 2.80536,-2.55634 18.67514,-2.55634 12.40073,0 14.89459,0.11386 16.49178,0.75292 3.05001,1.22038 3.23702,1.97591 3.23702,13.0781 v 9.70435 l -1.59179,1.21412 -1.59179,1.21412 h -13.7082 -13.70819 v 9.27272 9.27272 h 10.89544 10.89545 v -4.63636 -4.63636 h 4.40454 4.40454 l -0.007,5.2159 c -0.008,6.0536 -0.39912,7.15311 -3.01046,8.46136 -1.71083,0.85711 -2.86825,0.93328 -15.29632,1.00669 -7.39499,0.0437 -14.41108,-0.0919 -15.5913,-0.30122 z m 25.09584,-36.63725 v -7.88182 h -10.89545 -10.89544 v 7.88182 7.88181 h 10.89544 10.89545 z"
                   id="path5"
                   transform="matrix(0.52630856,0,0,0.52630856,-61.354622,61.058027)" /><path
                   style="fill:#3b4a5a;stroke:#3b4a5a;stroke-width:0.464366;fill-opacity:1;stroke-opacity:1"
                   d="m 302.65991,254.3017 c -2.68635,-0.5587 -3.7201,-1.1898 -4.53723,-2.76994 -1.02812,-1.98818 -1.04869,-42.03602 -0.0226,-44.02025 1.34012,-2.59151 2.86049,-2.81626 19.05116,-2.81626 19.75424,0 19.21662,-0.26231 19.21662,9.37588 v 5.9241 h -4.40455 -4.40454 v -4.86817 -4.86818 h -10.4318 -10.43181 v 19.24089 19.24089 h 10.43181 10.4318 v -5.56363 -5.56363 h 4.40454 4.40455 v 6.61956 c 0,10.52549 0.46215,10.2601 -18.0818,10.38323 -7.5225,0.05 -14.55426,-0.0916 -15.62614,-0.31449 z"
                   id="path6"
                   transform="matrix(0.52630856,0,0,0.52630856,-61.354622,61.058027)" /><path
                   style="fill:#3b4a5a;stroke:#3b4a5a;stroke-width:0.464366;fill-opacity:1;stroke-opacity:1"
                   d="m 361.67191,254.27675 c -1.60687,-0.26903 -2.70452,-0.80423 -3.70909,-1.80849 l -1.42681,-1.42639 -0.1343,-20.39149 -0.13431,-20.3915 h -4.15433 -4.15433 v -2.78181 -2.78182 h 4.17273 4.17272 v -7.88181 -7.88181 h 4.63636 4.63636 v 7.88181 7.88181 h 6.25908 6.25909 v 2.78182 2.78181 h -6.25909 -6.25908 v 19.24089 19.24089 h 6.25908 6.25909 v 3.01363 3.01364 l -7.07045,-0.0545 c -3.88875,-0.03 -8.09747,-0.22648 -9.35272,-0.43664 z"
                   id="path7"
                   transform="matrix(0.52630856,0,0,0.52630856,-61.354622,61.058027)" /></g></g></g></g></g></g></g></svg>
