<svg xmlns="http://www.w3.org/2000/svg" xmlns:xlink="http://www.w3.org/1999/xlink" width="500" zoomAndPan="magnify" viewBox="0 0 375 225" height="300" preserveAspectRatio="xMidYMid meet" version="1.0"><defs><g/><clipPath id="414cb3134e"><rect x="0" width="80" y="0" height="188"/></clipPath></defs><path fill="#3b4a5a" d="M 12.488281 139.230469 C 8.90625 138.355469 5.757812 135.230469 4.84375 131.648438 C 4.449219 130.097656 4.445312 91.179688 4.839844 89.695312 C 5.273438 88.070312 6.261719 86.285156 7.359375 85.160156 C 8.082031 84.417969 12.386719 81.371094 22.308594 74.585938 C 29.96875 69.34375 37.121094 64.511719 38.203125 63.84375 L 40.164062 62.636719 L 41.488281 62.730469 C 42.253906 62.785156 44.003906 63.15625 45.636719 63.613281 C 47.191406 64.050781 62.039062 68.746094 78.636719 74.050781 C 106.605469 82.988281 108.867188 83.738281 109.601562 84.34375 C 111.042969 85.523438 112.492188 87.898438 112.976562 89.871094 C 113.113281 90.425781 113.175781 97.484375 113.191406 113.363281 C 113.199219 125.84375 113.203125 136.832031 113.199219 137.78125 L 113.1875 139.503906 L 106.476562 139.503906 L 106.476562 115.703125 C 106.476562 99.253906 106.417969 91.691406 106.285156 91.214844 C 106.179688 90.839844 105.804688 90.234375 105.449219 89.871094 C 104.8125 89.226562 104.199219 89.019531 74.777344 79.648438 C 57.996094 74.300781 44.1875 69.996094 43.464844 69.882812 C 42.566406 69.742188 42 69.734375 41.589844 69.863281 C 40.804688 70.101562 13.148438 88.996094 12.320312 89.859375 C 11.960938 90.230469 11.585938 90.839844 11.480469 91.214844 C 11.210938 92.1875 11.214844 129.25 11.484375 130.230469 C 11.773438 131.277344 12.964844 132.351562 14.105469 132.597656 C 15.375 132.867188 49.40625 132.867188 50.675781 132.597656 C 51.757812 132.363281 52.707031 131.597656 53.167969 130.585938 C 53.46875 129.921875 53.488281 129.070312 53.492188 116.933594 C 53.496094 105.644531 53.460938 103.90625 53.222656 103.335938 C 52.875 102.503906 52.34375 101.933594 51.515625 101.511719 C 50.902344 101.195312 50.378906 101.175781 42.945312 101.175781 C 35.085938 101.175781 35.023438 101.175781 34.242188 101.570312 C 33.785156 101.804688 33.234375 102.289062 32.925781 102.734375 L 32.394531 103.5 L 32.34375 114.523438 L 32.292969 125.550781 L 25.628906 125.550781 L 25.507812 123.03125 C 25.4375 121.648438 25.414062 116.582031 25.453125 111.773438 L 25.527344 103.027344 L 25.996094 101.617188 C 27.160156 98.125 29.925781 95.539062 33.46875 94.636719 C 34.730469 94.3125 35.445312 94.285156 42.902344 94.285156 C 51.859375 94.285156 52.394531 94.339844 54.710938 95.511719 C 56.980469 96.65625 59.082031 99.203125 59.902344 101.792969 C 60.296875 103.027344 60.296875 103.0625 60.296875 116.894531 C 60.296875 129.855469 60.273438 130.828125 59.972656 131.820312 C 58.929688 135.21875 56.363281 137.929688 53.15625 139.019531 L 51.996094 139.414062 L 32.746094 139.445312 C 16.792969 139.472656 13.324219 139.433594 12.488281 139.230469 Z M 12.488281 139.230469 " fill-opacity="1" fill-rule="nonzero"/><path fill="#f4a300" d="M 73.492188 139.105469 C 72.554688 138.804688 71.402344 137.667969 71.085938 136.734375 C 70.667969 135.511719 70.660156 117.019531 71.078125 115.804688 C 71.410156 114.820312 72.222656 113.957031 73.277344 113.464844 C 74.042969 113.109375 74.375 113.09375 82.238281 113.046875 L 90.40625 112.996094 L 90.40625 99.230469 L 76.984375 99.230469 L 76.984375 107.003906 L 71.121094 107.003906 L 71.203125 102.453125 C 71.292969 97.386719 71.367188 96.996094 72.429688 95.785156 C 73.691406 94.355469 73.527344 94.375 83.785156 94.375 L 92.789062 94.375 L 93.785156 94.863281 C 94.769531 95.347656 95.417969 96.058594 95.914062 97.199219 C 96.101562 97.625 96.15625 101.871094 96.195312 118.441406 L 96.242188 139.148438 L 90.230469 139.148438 L 90.230469 138.53125 C 90.230469 138.191406 90.171875 137.914062 90.097656 137.914062 C 90.023438 137.914062 88.457031 138.113281 86.609375 138.359375 C 79.40625 139.320312 74.957031 139.574219 73.492188 139.105469 Z M 87.359375 133.738281 L 90.40625 133.636719 L 90.40625 117.601562 L 76.453125 117.601562 L 76.453125 133.992188 L 80.382812 133.917969 C 82.546875 133.875 85.683594 133.796875 87.359375 133.738281 Z M 87.359375 133.738281 " fill-opacity="1" fill-rule="nonzero"/><path fill="#f4a300" d="M 123.609375 67.792969 L 129.613281 67.792969 L 129.613281 140.03125 L 123.609375 140.03125 Z M 123.609375 67.792969 " fill-opacity="1" fill-rule="nonzero"/><path fill="#f4a300" d="M 143.035156 139.6875 C 141.777344 139.25 140.855469 138.277344 140.480469 136.992188 C 140.234375 136.140625 140.207031 133.910156 140.25 117.234375 L 140.296875 98.4375 L 140.828125 97.476562 C 141.484375 96.285156 142.46875 95.625 143.984375 95.363281 C 145.496094 95.097656 159.839844 95.101562 161.351562 95.367188 C 162.859375 95.628906 163.980469 96.386719 164.574219 97.546875 L 165.023438 98.425781 L 165.070312 107.515625 L 165.121094 116.605469 L 163.089844 118.660156 L 146.035156 118.660156 L 146.035156 135.085938 L 159.28125 135.085938 L 159.28125 126.785156 L 165.132812 126.785156 L 165.078125 131.863281 C 165.023438 136.695312 165.003906 136.976562 164.632812 137.664062 C 164.421875 138.0625 163.964844 138.636719 163.621094 138.9375 C 162.414062 140 162.066406 140.03125 152.582031 140.027344 C 144.632812 140.019531 143.933594 139.996094 143.035156 139.6875 Z M 159.28125 107.089844 L 159.28125 100.292969 L 146.035156 100.292969 L 146.035156 113.890625 L 159.28125 113.890625 Z M 159.28125 107.089844 " fill-opacity="1" fill-rule="nonzero"/><path fill="#3b4a5a" d="M 146.949219 90.960938 C 146.980469 90.878906 148.554688 88.453125 150.445312 85.570312 L 153.878906 80.332031 L 162.472656 80.332031 L 160.832031 81.894531 C 159.933594 82.753906 157.367188 85.175781 155.132812 87.28125 L 151.070312 91.105469 L 148.980469 91.105469 C 147.832031 91.105469 146.917969 91.039062 146.949219 90.960938 Z M 146.949219 90.960938 " fill-opacity="1" fill-rule="nonzero"/><path stroke-linecap="butt" transform="matrix(0.442173, 0, 0, 0.442232, 0.253862, 58.59936)" fill-opacity="1" fill="#3b4a5a" fill-rule="nonzero" stroke-linejoin="miter" d="M 21.555576 254.466964 C 18.967152 253.98998 17.350491 253.248006 16.46707 252.126211 C 15.557146 250.969083 15.530644 250.28894 15.530644 229.540148 C 15.530644 210.513797 15.618986 208.031715 16.290386 207.068915 C 17.836373 204.851824 19.073163 204.692829 34.745055 204.692829 C 54.789881 204.692829 54.480684 204.542667 54.480684 214.409164 L 54.480684 219.99164 L 45.204761 219.99164 L 45.204761 210.257639 L 24.806566 210.257639 L 24.806566 248.743159 L 45.204761 248.743159 L 45.204761 237.613539 L 54.480684 237.613539 L 54.47185 243.990988 C 54.463015 251.295906 54.162652 252.258706 51.459383 253.61016 C 49.745546 254.466964 48.605933 254.537628 36.167363 254.608293 C 28.764293 254.643625 22.200474 254.581793 21.555576 254.466964 Z M 21.555576 254.466964 " stroke="#3b4a5a" stroke-width="0.464" stroke-opacity="1" stroke-miterlimit="4"/><path stroke-linecap="butt" transform="matrix(0.442173, 0, 0, 0.442232, 0.253862, 58.59936)" fill-opacity="1" fill="#3b4a5a" fill-rule="nonzero" stroke-linejoin="miter" d="M 76.221679 254.299136 C 73.500742 253.839819 72.263952 253.053679 71.398199 251.225241 C 70.815141 249.988617 70.709131 246.552567 70.709131 229.425318 C 70.717965 207.572397 70.700297 207.731392 73.173876 205.902954 C 74.446003 204.95782 74.949553 204.931321 91.107326 204.931321 C 107.256265 204.931321 107.76865 204.95782 109.031942 205.902954 C 111.540858 207.757891 111.514355 207.457568 111.390676 230.07013 L 111.275832 251.039748 L 109.862358 252.453033 C 108.793418 253.52183 107.795152 253.963481 105.69261 254.307969 C 102.468122 254.837951 79.357824 254.829118 76.221679 254.299136 Z M 102.229599 229.495983 L 102.229599 210.257639 L 79.976219 210.257639 L 79.976219 248.743159 L 102.229599 248.743159 Z M 102.229599 229.495983 " stroke="#3b4a5a" stroke-width="0.464" stroke-opacity="1" stroke-miterlimit="4"/><path stroke-linecap="butt" transform="matrix(0.442173, 0, 0, 0.442232, 0.253862, 58.59936)" fill-opacity="1" fill="#3b4a5a" fill-rule="nonzero" stroke-linejoin="miter" d="M 127.733968 229.734475 L 127.733968 204.692829 L 132.37193 204.692829 C 136.241314 204.692829 137.001057 204.816491 137.001057 205.408305 C 137.001057 205.955953 137.363259 206.070782 138.511707 205.894121 C 142.752128 205.222811 152.31958 204.542667 157.867465 204.507335 C 164.634471 204.46317 166.454319 204.948987 167.708777 207.130746 C 168.159322 207.934552 168.327172 213.596525 168.433182 231.474582 L 168.57453 254.767287 L 158.795057 254.767287 L 158.795057 210.116311 L 150.800095 210.416634 C 146.400658 210.584461 141.49767 210.716957 139.898678 210.716957 L 137.001057 210.72579 L 137.001057 254.767287 L 127.733968 254.767287 Z M 127.733968 229.734475 " stroke="#3b4a5a" stroke-width="0.464" stroke-opacity="1" stroke-miterlimit="4"/><path stroke-linecap="butt" transform="matrix(0.442173, 0, 0, 0.442232, 0.253862, 58.59936)" fill-opacity="1" fill="#3b4a5a" fill-rule="nonzero" stroke-linejoin="miter" d="M 184.758806 229.734475 L 184.758806 204.692829 L 189.396767 204.692829 C 193.266152 204.692829 194.034728 204.816491 194.034728 205.408305 C 194.034728 205.964786 194.379262 206.070782 195.536544 205.867622 C 196.36696 205.726294 200.695724 205.302308 205.157001 204.922488 C 218.770521 203.774194 221.747651 204.039185 223.903198 206.600764 L 225.095817 208.014049 L 225.095817 254.767287 L 215.819895 254.767287 L 215.819895 210.116311 L 207.824933 210.416634 C 203.425495 210.584461 198.522508 210.716957 196.93235 210.716957 L 194.034728 210.72579 L 194.034728 254.767287 L 184.758806 254.767287 Z M 184.758806 229.734475 " stroke="#3b4a5a" stroke-width="0.464" stroke-opacity="1" stroke-miterlimit="4"/><path stroke-linecap="butt" transform="matrix(0.442173, 0, 0, 0.442232, 0.253862, 58.59936)" fill-opacity="1" fill="#3b4a5a" fill-rule="nonzero" stroke-linejoin="miter" d="M 246.827978 254.316802 C 243.983362 253.81332 242.870251 253.159675 242.022167 251.534397 C 241.430275 250.386103 241.324264 247.020718 241.324264 229.354654 C 241.324264 208.694192 241.333098 208.517532 242.331364 207.254408 C 244.239554 204.816491 245.131809 204.692829 261.006888 204.692829 C 273.401287 204.692829 275.901369 204.807658 277.491527 205.45247 C 280.548165 206.671428 280.733683 207.422236 280.733683 218.525357 L 280.733683 228.232859 L 279.143525 229.442985 L 277.544533 230.661943 L 250.131973 230.661943 L 250.131973 249.202477 L 271.925974 249.202477 L 271.925974 239.927793 L 280.733683 239.927793 L 280.724849 245.148115 C 280.716015 251.198742 280.327309 252.302871 277.712383 253.61016 C 276.00738 254.466964 274.850098 254.546461 262.420362 254.617126 C 255.026127 254.661291 248.002928 254.519962 246.827978 254.316802 Z M 271.925974 217.677386 L 271.925974 209.798321 L 250.131973 209.798321 L 250.131973 225.55645 L 271.925974 225.55645 Z M 271.925974 217.677386 " stroke="#3b4a5a" stroke-width="0.464" stroke-opacity="1" stroke-miterlimit="4"/><path stroke-linecap="butt" transform="matrix(0.442173, 0, 0, 0.442232, 0.253862, 58.59936)" fill-opacity="1" fill="#3b4a5a" fill-rule="nonzero" stroke-linejoin="miter" d="M 302.660197 254.299136 C 299.974597 253.742655 298.940994 253.11551 298.119412 251.534397 C 297.094643 249.546965 297.076975 209.497998 298.101744 207.510566 C 299.444544 204.922488 300.964028 204.692829 317.148304 204.692829 C 336.901602 204.692829 336.371549 204.436671 336.371549 214.073509 L 336.371549 219.99164 L 327.555006 219.99164 L 327.555006 210.257639 L 306.697432 210.257639 L 306.697432 248.743159 L 327.555006 248.743159 L 327.555006 237.613539 L 336.371549 237.613539 L 336.371549 244.22948 C 336.371549 254.758454 336.830928 254.493463 318.287918 254.617126 C 310.761169 254.670124 303.729137 254.528795 302.660197 254.299136 Z M 302.660197 254.299136 " stroke="#3b4a5a" stroke-width="0.464" stroke-opacity="1" stroke-miterlimit="4"/><path stroke-linecap="butt" transform="matrix(0.442173, 0, 0, 0.442232, 0.253862, 58.59936)" fill-opacity="1" fill="#3b4a5a" fill-rule="nonzero" stroke-linejoin="miter" d="M 361.672732 254.272637 C 360.064905 254.007646 358.969463 253.468831 357.962363 252.470699 L 356.540055 251.039748 L 356.398708 230.65311 L 356.266194 210.257639 L 347.962035 210.257639 L 347.962035 204.692829 L 356.301531 204.692829 L 356.301531 188.9347 L 365.577454 188.9347 L 365.577454 204.692829 L 378.095532 204.692829 L 378.095532 210.257639 L 365.577454 210.257639 L 365.577454 248.743159 L 378.095532 248.743159 L 378.095532 254.767287 L 371.028162 254.714289 C 367.132275 254.68779 362.92719 254.48463 361.672732 254.272637 Z M 361.672732 254.272637 " stroke="#3b4a5a" stroke-width="0.464" stroke-opacity="1" stroke-miterlimit="4"/><g fill="#3b4a5a" fill-opacity="1"><g transform="translate(162.023695, 173.15307)"><g><path d="M 18.21875 0 L 13.953125 0 C 12.972656 0 12.484375 -0.585938 12.484375 -1.765625 L 12.484375 -92.703125 C 12.484375 -93.878906 12.972656 -94.46875 13.953125 -94.46875 L 47.75 -94.46875 C 54.113281 -94.46875 59.15625 -92.609375 62.875 -88.890625 C 66.601562 -85.171875 68.46875 -80.078125 68.46875 -73.609375 L 68.46875 -56.421875 C 68.46875 -49.953125 66.601562 -44.859375 62.875 -41.140625 C 59.15625 -37.421875 54.113281 -35.5625 47.75 -35.5625 L 21.296875 -35.5625 C 20.316406 -35.5625 19.828125 -35.164062 19.828125 -34.375 L 19.828125 -1.765625 C 19.828125 -0.585938 19.289062 0 18.21875 0 Z M 21.296875 -42.3125 L 47.15625 -42.3125 C 51.664062 -42.3125 55.09375 -43.5625 57.4375 -46.0625 C 59.789062 -48.5625 60.96875 -52.113281 60.96875 -56.71875 L 60.96875 -73.3125 C 60.96875 -78.007812 59.789062 -81.609375 57.4375 -84.109375 C 55.09375 -86.609375 51.664062 -87.859375 47.15625 -87.859375 L 21.296875 -87.859375 C 20.316406 -87.859375 19.828125 -87.414062 19.828125 -86.53125 L 19.828125 -43.484375 C 19.828125 -42.703125 20.316406 -42.3125 21.296875 -42.3125 Z M 21.296875 -42.3125 "/></g></g></g><g transform="matrix(1, 0, 0, 1, 225, 36)"><g clip-path="url(#414cb3134e)"><g fill="#3b4a5a" fill-opacity="1"><g transform="translate(0.575072, 136.374052)"><g><path d="M 18.21875 0 L 13.96875 0 C 12.988281 0 12.5 -0.585938 12.5 -1.765625 L 12.5 -92.75 C 12.5 -93.925781 12.988281 -94.515625 13.96875 -94.515625 L 47.46875 -94.515625 C 53.84375 -94.515625 58.890625 -92.648438 62.609375 -88.921875 C 66.335938 -85.203125 68.203125 -80.109375 68.203125 -73.640625 L 68.203125 -59.671875 C 68.203125 -54.179688 66.804688 -49.671875 64.015625 -46.140625 C 61.222656 -42.617188 57.425781 -40.367188 52.625 -39.390625 L 52.625 -38.796875 L 70.109375 -1.765625 C 70.703125 -0.585938 70.359375 0 69.078125 0 L 64.53125 0 C 63.25 0 62.363281 -0.585938 61.875 -1.765625 L 44.53125 -38.796875 L 21.3125 -38.796875 C 20.332031 -38.796875 19.84375 -38.359375 19.84375 -37.484375 L 19.84375 -1.765625 C 19.84375 -0.585938 19.300781 0 18.21875 0 Z M 21.3125 -45.125 L 46.734375 -45.125 C 51.242188 -45.125 54.722656 -46.375 57.171875 -48.875 C 59.617188 -51.375 60.84375 -54.925781 60.84375 -59.53125 L 60.84375 -73.34375 C 60.84375 -77.945312 59.617188 -81.519531 57.171875 -84.0625 C 54.722656 -86.613281 51.242188 -87.890625 46.734375 -87.890625 L 21.3125 -87.890625 C 20.332031 -87.890625 19.84375 -87.453125 19.84375 -86.578125 L 19.84375 -46.453125 C 19.84375 -45.566406 20.332031 -45.125 21.3125 -45.125 Z M 21.3125 -45.125 "/></g></g></g></g></g><g fill="#3b4a5a" fill-opacity="1"><g transform="translate(298.366334, 173.903068)"><g><path d="M 33.359375 -6.859375 L 50.734375 -6.859375 C 55.398438 -6.859375 58.976562 -8.148438 61.46875 -10.734375 C 63.957031 -13.328125 65.203125 -17.0625 65.203125 -21.9375 L 65.203125 -76.015625 C 65.203125 -80.890625 63.957031 -84.625 61.46875 -87.21875 C 58.976562 -89.8125 55.398438 -91.109375 50.734375 -91.109375 L 33.359375 -91.109375 C 28.691406 -91.109375 25.140625 -89.785156 22.703125 -87.140625 C 20.265625 -84.503906 19.046875 -80.796875 19.046875 -76.015625 L 19.046875 -21.9375 C 19.046875 -17.164062 20.265625 -13.457031 22.703125 -10.8125 C 25.140625 -8.175781 28.691406 -6.859375 33.359375 -6.859375 Z M 51.5 0 L 32.75 0 C 26.15625 0 20.953125 -1.925781 17.140625 -5.78125 C 13.328125 -9.644531 11.421875 -14.929688 11.421875 -21.640625 L 11.421875 -76.328125 C 11.421875 -83.023438 13.328125 -88.300781 17.140625 -92.15625 C 20.953125 -96.019531 26.15625 -97.953125 32.75 -97.953125 L 51.5 -97.953125 C 58.09375 -97.953125 63.296875 -96.019531 67.109375 -92.15625 C 70.921875 -88.300781 72.828125 -83.023438 72.828125 -76.328125 L 72.828125 -21.640625 C 72.828125 -14.929688 70.921875 -9.644531 67.109375 -5.78125 C 63.296875 -1.925781 58.09375 0 51.5 0 Z M 51.5 0 "/></g></g></g></svg>